# xmcd
#
# Track frame offsets: 
#        150
#        13197
#        25635
#        40300
#        55512
#        65651
#        79325
#        89255
#        103227
#        114469
#        128007
#        142676
#        155786
#        168937
#
# Disc length: 2486 seconds
#
# Revision: 1
# Processed by: cddbd v1.5.2PL0 Copyright (c) Steve Scherf et al.
# Submitted via: ExactAudioCopyFreeDBPlugin 1.0
#
DISCID=b109b40e
DTITLE=Frank Sinatra and Dionne Warwick - The Best of Swing
DYEAR=2006
DGENRE=Swing
TTITLE0=Little girl blue
TTITLE1=Alfie (Dionne Warwick)
TTITLE2=My one and only love
TTITLE3=Don't make me over (Dionne Warwick)
TTITLE4=Taking a chance on love
TTITLE5=I'll never fall in love again (Dionne Warwick)
TTITLE6=I've got the world on a string
TTITLE7=I say a little prayer for you (Dionne Warwick)
TTITLE8=Some old saturday night
TTITLE9=(there's) Always something there to remind me (Dionne Warwick)
TTITLE10=Just one of those things
TTITLE11=Walk on by (Dionne Warwick)
TTITLE12=It worries me
TTITLE13=Unchained melody (Dionne Warwick)
EXTD=
EXTT0=
EXTT1=
EXTT2=
EXTT3=
EXTT4=
EXTT5=
EXTT6=
EXTT7=
EXTT8=
EXTT9=
EXTT10=
EXTT11=
EXTT12=
EXTT13=
PLAYORDER=
